<svg width="12" height="20" viewBox="0 0 12 20" fill="none" xmlns="http://www.w3.org/2000/svg">
<path d="M8.25792 4.09502V2.80543H8.55204C9.32127 2.80543 9.95475 2.17195 9.95475 1.40271C9.95475 0.633484 9.32127 0 8.55204 0H2.76018C1.99095 0 1.35747 0.633484 1.35747 1.40271C1.35747 2.17195 1.99095 2.80543 2.76018 2.80543H3.0543V4.09502C1.33484 4.20814 0 5.63348 0 7.35294V10.905H11.3122V7.35294C11.3122 5.63348 9.97737 4.20814 8.25792 4.09502ZM7.1267 4.0724H6.22172V3.57466H5.0905V4.0724H4.18552V2.78281H7.1267V4.0724V4.0724Z" fill="#0077B5"/>
<path d="M0 12.0362V15.6561C0 16.9005 0.701358 18.0317 1.80995 18.5973V20H9.50226V18.5973C10.6109 18.0317 11.3122 16.9005 11.3122 15.6561V12.0362H0Z" fill="#0077B5"/>
</svg>
