<svg width="30" height="50" viewBox="0 0 30 50" fill="none" xmlns="http://www.w3.org/2000/svg">
<path d="M21.5045 10.2376V7.01358H22.2398C24.1629 7.01358 25.7466 5.42986 25.7466 3.50679C25.7466 1.58371 24.1629 0 22.2398 0H7.76019C5.83712 0 4.25341 1.58371 4.25341 3.50679C4.25341 5.42986 5.83712 7.01358 7.76019 7.01358H8.49549V10.2376C4.19684 10.5204 0.859741 14.0837 0.859741 18.3824V27.2624H29.1403V18.3824C29.1403 14.0837 25.8032 10.5204 21.5045 10.2376ZM18.6765 10.181H16.414V8.93665H13.586V10.181H11.3235V6.95701H18.6765V10.181Z" fill="#B51600"/>
<path d="M0.859741 30.0905V39.1403C0.859741 42.2511 2.61314 45.0792 5.38463 46.4932V50H24.6154V46.4932C27.3869 45.0792 29.1403 42.2511 29.1403 39.1403V30.0905H0.859741Z" fill="#B51600"/>
</svg>
