<svg width="50" height="50" viewBox="0 0 50 50" fill="none" xmlns="http://www.w3.org/2000/svg">
<g clip-path="url(#clip0_72_109)">
<path d="M6.24996 6.25H43.75C44.3025 6.25 44.8324 6.46949 45.2231 6.86019C45.6138 7.25089 45.8333 7.7808 45.8333 8.33333V41.6667C45.8333 42.2192 45.6138 42.7491 45.2231 43.1398C44.8324 43.5305 44.3025 43.75 43.75 43.75H6.24996C5.69743 43.75 5.16752 43.5305 4.77682 43.1398C4.38612 42.7491 4.16663 42.2192 4.16663 41.6667V8.33333C4.16663 7.7808 4.38612 7.25089 4.77682 6.86019C5.16752 6.46949 5.69743 6.25 6.24996 6.25ZM14.5833 27.0833V35.4167H18.75V27.0833H14.5833ZM22.9166 14.5833V35.4167H27.0833V14.5833H22.9166ZM31.25 20.8333V35.4167H35.4166V20.8333H31.25Z" fill="#020202"/>
</g>
<defs>
<clipPath id="clip0_72_109">
<rect width="50" height="50" fill="white"/>
</clipPath>
</defs>
</svg>
