<svg width="50" height="50" viewBox="0 0 50 50" fill="none" xmlns="http://www.w3.org/2000/svg">
<g clip-path="url(#clip0_69_430)">
<path d="M37.5 16.6667H41.6667C42.2192 16.6667 42.7491 16.8862 43.1398 17.2769C43.5305 17.6676 43.75 18.1975 43.75 18.75V43.75C43.75 44.3025 43.5305 44.8324 43.1398 45.2231C42.7491 45.6138 42.2192 45.8333 41.6667 45.8333H8.33333C7.7808 45.8333 7.25089 45.6138 6.86019 45.2231C6.46949 44.8324 6.25 44.3025 6.25 43.75V18.75C6.25 18.1975 6.46949 17.6676 6.86019 17.2769C7.25089 16.8862 7.7808 16.6667 8.33333 16.6667H12.5V14.5833C12.5 11.2681 13.817 8.0887 16.1612 5.7445C18.5054 3.40029 21.6848 2.08333 25 2.08333C28.3152 2.08333 31.4946 3.40029 33.8388 5.7445C36.183 8.0887 37.5 11.2681 37.5 14.5833V16.6667ZM33.3333 16.6667V14.5833C33.3333 12.3732 32.4554 10.2536 30.8926 8.69078C29.3298 7.12797 27.2101 6.25 25 6.25C22.7899 6.25 20.6702 7.12797 19.1074 8.69078C17.5446 10.2536 16.6667 12.3732 16.6667 14.5833V16.6667H33.3333ZM14.5833 22.9167V27.0833H18.75V22.9167H14.5833ZM14.5833 29.1667V33.3333H18.75V29.1667H14.5833ZM14.5833 35.4167V39.5833H18.75V35.4167H14.5833Z" fill="#B55700"/>
</g>
<defs>
<clipPath id="clip0_69_430">
<rect width="50" height="50" fill="white"/>
</clipPath>
</defs>
</svg>
