<svg width="50" height="50" viewBox="0 0 50 50" fill="none" xmlns="http://www.w3.org/2000/svg">
<g clip-path="url(#clip0_72_77)">
<path d="M6.24996 6.25H43.75C44.3025 6.25 44.8324 6.46949 45.2231 6.86019C45.6138 7.25089 45.8333 7.7808 45.8333 8.33333V41.6667C45.8333 42.2192 45.6138 42.7491 45.2231 43.1398C44.8324 43.5305 44.3025 43.75 43.75 43.75H6.24996C5.69743 43.75 5.16752 43.5305 4.77682 43.1398C4.38612 42.7491 4.16663 42.2192 4.16663 41.6667V8.33333C4.16663 7.7808 4.38612 7.25089 4.77682 6.86019C5.16752 6.46949 5.69743 6.25 6.24996 6.25ZM18.75 25C18.75 26.6576 19.4084 28.2473 20.5805 29.4194C21.7526 30.5915 23.3424 31.25 25 31.25C26.6576 31.25 28.2473 30.5915 29.4194 29.4194C30.5915 28.2473 31.25 26.6576 31.25 25H41.6666V10.4167H8.33329V25H18.75Z" fill="#B51600"/>
</g>
<defs>
<clipPath id="clip0_72_77">
<rect width="50" height="50" fill="white"/>
</clipPath>
</defs>
</svg>
