<svg width="50" height="50" viewBox="0 0 50 50" fill="none" xmlns="http://www.w3.org/2000/svg">
<g clip-path="url(#clip0_72_97)">
<path d="M18.75 8.33334H30.0959C30.4492 8.33334 30.7968 8.42321 31.1058 8.5945C31.4149 8.76579 31.6753 9.01287 31.8625 9.31251L39.0625 20.8333H48.2459C48.4268 20.8332 48.6046 20.8802 48.7618 20.9696C48.919 21.0591 49.0502 21.188 49.1425 21.3435C49.2348 21.4991 49.285 21.676 49.2882 21.8569C49.2913 22.0378 49.2473 22.2163 49.1605 22.375L40.9584 37.4104C39.1237 37.6563 37.2567 37.4081 35.5501 36.6913C33.8434 35.9746 32.359 34.8154 31.25 33.3333C30.2807 34.628 29.0227 35.6787 27.5761 36.4021C26.1294 37.1254 24.5341 37.5013 22.9167 37.5C21.2993 37.5013 19.704 37.1254 18.2574 36.4021C16.8107 35.6787 15.5528 34.628 14.5834 33.3333C13.4977 34.7839 12.052 35.9256 10.3893 36.6455C8.7267 37.3653 6.90484 37.6384 5.10421 37.4375L2.52921 23.2896C2.47458 22.9893 2.48659 22.6807 2.56439 22.3856C2.64218 22.0905 2.78387 21.8161 2.97943 21.5818C3.17499 21.3474 3.41964 21.159 3.69609 21.0296C3.97253 20.9003 4.27401 20.8333 4.57921 20.8333H6.25004V10.4167C6.25004 9.86414 6.46953 9.33424 6.86024 8.94354C7.25094 8.55284 7.78084 8.33334 8.33337 8.33334H10.4167V2.08334H18.75V8.33334ZM10.4167 20.8333H34.15L28.9417 12.5H10.4167V20.8333ZM6.25004 41.6667C9.32559 41.6709 12.2939 40.537 14.5834 38.4833C16.8728 40.537 19.8412 41.6709 22.9167 41.6667C25.9923 41.6709 28.9606 40.537 31.25 38.4833C33.5395 40.537 36.5078 41.6709 39.5834 41.6667H43.75V45.8333H39.5834C36.6576 45.8381 33.7827 45.0691 31.25 43.6042C28.7174 45.0691 25.8425 45.8381 22.9167 45.8333C19.991 45.8381 17.116 45.0691 14.5834 43.6042C12.0508 45.0691 9.17579 45.8381 6.25004 45.8333H2.08337V41.6667H6.25004Z" fill="#0077B5"/>
</g>
<defs>
<clipPath id="clip0_72_97">
<rect width="50" height="50" fill="white"/>
</clipPath>
</defs>
</svg>
