<svg width="45" height="45" viewBox="0 0 45 45" fill="none" xmlns="http://www.w3.org/2000/svg">
<path d="M22.5 7.99805C14.5049 7.99805 7.99805 14.5036 7.99805 22.5C7.99805 30.4964 14.5049 37.002 22.5 37.002C30.4951 37.002 37.002 30.4964 37.002 22.5C37.002 14.5036 30.4951 7.99805 22.5 7.99805ZM29.0918 15.9082H25.1342C25.7099 16.6735 26.1088 17.5732 26.3075 18.5449H29.0918V21.1816H26.3106C25.7837 23.7567 23.7618 25.7945 21.1868 26.3212L26.1435 32.1971L24.1299 33.8966L15.6249 23.8184H19.8633C21.5798 23.8184 23.0295 22.7129 23.5755 21.1816H15.9082V18.5449H23.5755C23.0295 17.0137 21.5798 15.9082 19.8633 15.9082H15.9082V13.2715H29.0918V15.9082Z" fill="#F9AF20"/>
<path d="M22.5 0C10.1429 0 0 10.1417 0 22.5C0 34.8583 10.1429 45 22.5 45C34.8571 45 45 34.8583 45 22.5C45 10.1417 34.8571 0 22.5 0ZM22.5 39.6387C13.05 39.6387 5.36133 31.95 5.36133 22.5C5.36133 13.05 13.05 5.36133 22.5 5.36133C31.95 5.36133 39.6387 13.05 39.6387 22.5C39.6387 31.95 31.95 39.6387 22.5 39.6387Z" fill="#F9AF20"/>
</svg>
