<svg width="46" height="46" viewBox="0 0 46 46" fill="none" xmlns="http://www.w3.org/2000/svg">
<path fill-rule="evenodd" clip-rule="evenodd" d="M13.701 0C14.9621 0 15.9845 1.02237 15.9845 2.2835H29.6855C29.6855 1.02237 30.7078 0 31.969 0C33.2301 0 34.2525 1.02237 34.2525 2.2835C40.5581 2.2835 45.67 7.3953 45.67 13.701V34.2525C45.67 40.5582 40.5581 45.67 34.2525 45.67H11.4175C5.11177 45.67 -3.05176e-05 40.5582 -3.05176e-05 34.2525V13.701C-3.05176e-05 7.3953 5.11177 2.2835 11.4175 2.2835C11.4175 1.02237 12.4398 0 13.701 0ZM31.3513 22.1132C32.214 21.1932 32.1674 19.7482 31.2472 18.8857C30.3271 18.0231 28.8821 18.0697 28.0197 18.9898L20.9075 26.5761L17.4197 23.7575C16.4388 22.9649 15.001 23.1175 14.2084 24.0985C13.4157 25.0795 13.5683 26.5171 14.5492 27.3097L19.6872 31.4616C20.6175 32.2133 21.9702 32.1199 22.7882 31.2472L31.3513 22.1132Z" fill="#0077B5"/>
</svg>
