<svg width="40" height="36" viewBox="0 0 40 36" fill="none" xmlns="http://www.w3.org/2000/svg">
<path d="M12.5 0.5C11.837 0.5 11.2011 0.7634 10.7322 1.23223C10.2634 1.70108 10 2.33695 10 3C10 3.66305 10.2634 4.29892 10.7322 4.76777C11.2011 5.2366 11.837 5.5 12.5 5.5H27.5C28.163 5.5 28.799 5.2366 29.2677 4.76777C29.7365 4.29892 30 3.66305 30 3C30 2.33695 29.7365 1.70108 29.2677 1.23223C28.799 0.7634 28.163 0.5 27.5 0.5H12.5ZM5 10.5C5 9.83695 5.2634 9.20108 5.73223 8.73223C6.20108 8.2634 6.83695 8 7.5 8H32.5C33.163 8 33.799 8.2634 34.2677 8.73223C34.7365 9.20108 35 9.83695 35 10.5C35 11.163 34.7365 11.7989 34.2677 12.2678C33.799 12.7366 33.163 13 32.5 13H7.5C6.83695 13 6.20108 12.7366 5.73223 12.2678C5.2634 11.7989 5 11.163 5 10.5ZM0 20.5C0 19.174 0.526775 17.9021 1.46447 16.9645C2.40215 16.0268 3.67392 15.5 5 15.5H35C36.326 15.5 37.5977 16.0268 38.5355 16.9645C39.4733 17.9021 40 19.174 40 20.5V30.5C40 31.826 39.4733 33.0977 38.5355 34.0355C37.5977 34.9733 36.326 35.5 35 35.5H5C3.67392 35.5 2.40215 34.9733 1.46447 34.0355C0.526775 33.0977 0 31.826 0 30.5V20.5Z" fill="#020202"/>
</svg>
