<svg width="341" height="204" viewBox="0 0 341 204" fill="none" xmlns="http://www.w3.org/2000/svg">
<g clip-path="url(#clip0_29_9)">
<path d="M261.078 201.693C256.712 198.002 254.06 192.171 254.756 186.494C255.451 180.817 259.758 175.598 265.345 174.393C270.933 173.187 277.302 176.524 278.999 181.986C279.933 171.456 281.009 160.486 286.603 151.519C291.669 143.4 300.443 137.591 309.952 136.552C319.46 135.512 329.472 139.438 335.402 146.948C341.332 154.458 342.785 165.375 338.631 173.998C335.571 180.349 329.934 185.076 324.028 188.922C304.943 201.243 282.053 206.254 259.57 203.032L261.078 201.693Z" fill="#D5EAFE"/>
<path d="M325.999 139.655C318.153 146.05 310.955 153.202 304.51 161.008C294.422 173.182 286.26 186.831 280.306 201.481C279.87 202.549 281.604 203.015 282.035 201.958C291.777 178.15 307.328 157.165 327.267 140.924C328.163 140.195 326.887 138.932 325.999 139.655Z" fill="white"/>
<path d="M109.773 200.69C115.77 195.62 119.412 187.611 118.457 179.814C117.502 172.017 111.586 164.849 103.912 163.193C96.2375 161.538 87.4896 166.121 85.1588 173.622C83.876 159.16 82.3978 144.092 74.7139 131.777C67.7562 120.625 55.7054 112.646 42.6451 111.218C29.5847 109.791 15.8339 115.182 7.6886 125.497C-0.456664 135.812 -2.451 150.808 3.25373 162.65C7.4562 171.374 15.1986 177.867 23.3108 183.148C49.1913 200 81.2961 207.028 111.844 202.529" fill="#D5EAFE"/>
<path d="M20.6037 115.481C31.3801 124.264 41.2663 134.087 50.1194 144.809C58.9738 155.519 66.7692 167.063 73.396 179.28C77.1001 186.133 80.4276 193.183 83.3635 200.398C83.9622 201.866 81.5802 202.505 80.9882 201.054C75.7878 188.332 69.354 176.151 61.7789 164.686C54.2406 153.262 45.6127 142.596 36.0163 132.84C30.5885 127.324 24.8617 122.111 18.8619 117.224C17.6321 116.222 19.3841 114.487 20.6037 115.481L20.6037 115.481Z" fill="white"/>
<path d="M224 204H102V56.7977C102 25.4793 123.667 0 150.299 0H175.701C202.333 0 224 25.4793 224 56.7977V204Z" fill="#D5EAFE"/>
<path d="M214.987 203.553H101.712V56.6734C101.681 44.6991 105.47 33.0275 112.528 23.3579C112.788 23.0031 113.048 22.6528 113.316 22.3064C116.73 17.8259 120.792 13.88 125.37 10.5989C125.628 10.4106 125.888 10.2256 126.151 10.0406C129.982 7.38833 134.125 5.22012 138.487 3.58537C138.746 3.48712 139.01 3.38869 139.274 3.29427C143.219 1.88551 147.308 0.920512 151.467 0.417101C151.724 0.381861 151.989 0.354286 152.254 0.32671C156.306 -0.106859 160.393 -0.106859 164.446 0.32671C164.71 0.354286 164.974 0.381858 165.235 0.417478C169.393 0.920922 173.481 1.8858 177.425 3.29429C177.689 3.38871 177.953 3.48714 178.212 3.58557C182.521 5.19971 186.615 7.33556 190.405 9.94547C190.668 10.1264 190.932 10.3114 191.191 10.4964C193.757 12.3291 196.167 14.3708 198.397 16.6007C200.185 18.3893 201.851 20.2959 203.384 22.3075C203.651 22.6528 203.91 23.0031 204.17 23.3574C211.229 33.0271 215.018 44.6989 214.987 56.6734V203.553Z" fill="#0077B5"/>
<path d="M205.776 137.859C209.239 137.859 212.047 135.05 212.047 131.584C212.047 128.118 209.239 125.309 205.776 125.309C202.312 125.309 199.505 128.118 199.505 131.584C199.505 135.05 202.312 137.859 205.776 137.859Z" fill="#0077B5"/>
<path d="M233.055 199.154H228.25L225.964 180.608L233.056 180.608L233.055 199.154Z" fill="#FFB8B8"/>
<path d="M224.818 197.78H234.085V203.619H218.983C218.983 202.852 219.134 202.093 219.427 201.384C219.72 200.676 220.15 200.032 220.692 199.49C221.234 198.948 221.877 198.518 222.585 198.225C223.293 197.931 224.051 197.78 224.818 197.78Z" fill="#020202"/>
<path d="M256.965 199.154H252.159L249.873 180.608L256.965 180.608L256.965 199.154Z" fill="#FFB8B8"/>
<path d="M248.727 197.78H257.994V203.619H242.892C242.892 202.852 243.043 202.093 243.336 201.384C243.629 200.676 244.059 200.032 244.601 199.49C245.143 198.948 245.786 198.518 246.494 198.225C247.202 197.931 247.961 197.78 248.727 197.78Z" fill="#020202"/>
<path d="M208.95 132.827C208.604 132.318 208.374 131.738 208.277 131.13C208.179 130.522 208.215 129.9 208.384 129.307C208.553 128.715 208.849 128.167 209.252 127.701C209.655 127.236 210.156 126.865 210.718 126.614L227.053 81.5625L235.091 85.9518L216.439 129.004C216.798 129.977 216.788 131.048 216.411 132.014C216.033 132.98 215.315 133.773 214.392 134.245C213.468 134.716 212.405 134.832 211.402 134.571C210.399 134.309 209.526 133.689 208.95 132.827Z" fill="#FFB8B8"/>
<path d="M254.51 141.293C253.976 140.986 253.516 140.566 253.161 140.063C252.807 139.559 252.567 138.984 252.459 138.377C252.351 137.771 252.377 137.148 252.536 136.553C252.694 135.958 252.981 135.405 253.376 134.932L248.316 87.276L257.463 87.6942L259.566 134.571C260.315 135.287 260.775 136.254 260.859 137.288C260.943 138.322 260.645 139.35 260.022 140.179C259.399 141.007 258.493 141.578 257.477 141.784C256.462 141.989 255.406 141.814 254.51 141.293Z" fill="#FFB8B8"/>
<path d="M239.917 73.2179C245.234 73.2179 249.544 68.9051 249.544 63.585C249.544 58.2649 245.234 53.9521 239.917 53.9521C234.601 53.9521 230.291 58.2649 230.291 63.585C230.291 68.9051 234.601 73.2179 239.917 73.2179Z" fill="#FFB8B8"/>
<path d="M254.449 130.454H225.426L225.461 130.228C225.513 129.89 230.633 96.3265 226.857 85.346C226.478 84.2669 226.511 83.0857 226.95 82.0297C227.389 80.9738 228.203 80.1177 229.235 79.6263H229.236C234.633 77.0827 244.995 73.9506 253.741 81.5517C255.027 82.6886 256.032 84.1095 256.676 85.7021C257.319 87.2947 257.584 89.0152 257.448 90.7276L254.449 130.454Z" fill="#B55700"/>
<path d="M231 101.287L217.933 98.6341L224.058 84.1109C224.425 82.7043 225.334 81.5005 226.586 80.7637C227.838 80.0269 229.332 79.8171 230.738 80.1805C232.145 80.5439 233.35 81.4507 234.09 82.702C234.829 83.9533 235.042 85.447 234.682 86.8554L231 101.287Z" fill="#B55700"/>
<path d="M247.735 106.212L246.949 88.1934C246.354 84.8063 248.291 81.6043 251.271 81.0809C254.252 80.5595 257.163 82.9087 257.762 86.3207L260.714 103.157L247.735 106.212Z" fill="#B55700"/>
<path d="M253.483 128.297C258.153 146.094 258.662 168.721 257.403 193.403L251.131 192.618L239.765 145.554L233.493 193.403L226.438 193.01C224.33 167.113 222.278 144.881 225.654 130.258L253.483 128.297Z" fill="#020202"/>
<path d="M246.26 71.0296C244.465 72.9438 241.129 71.9162 240.895 69.3011C240.877 69.098 240.878 68.8937 240.899 68.6909C241.02 67.5325 241.689 66.4808 241.529 65.2577C241.492 64.9533 241.379 64.6632 241.199 64.4149C239.768 62.4973 236.409 65.2726 235.058 63.5367C234.23 62.4722 235.204 60.7963 234.568 59.6066C233.729 58.0364 231.245 58.811 229.687 57.951C227.953 56.9943 228.057 54.3329 229.198 52.7141C230.59 50.7399 233.03 49.6864 235.439 49.5346C237.849 49.3828 240.242 50.0346 242.491 50.9118C245.047 51.9085 247.582 53.286 249.155 55.5349C251.068 58.2698 251.252 61.9466 250.295 65.1446C249.713 67.0899 247.727 69.4664 246.26 71.0296Z" fill="#020202"/>
<path d="M183.826 160.999H132.872C132.201 161.003 131.556 160.74 131.079 160.268C130.601 159.797 130.33 159.155 130.325 158.483V44.6779C130.33 44.0065 130.601 43.3645 131.079 42.8928C131.556 42.4211 132.201 42.1582 132.872 42.1618H183.826C184.497 42.1582 185.143 42.4211 185.62 42.8928C186.098 43.3645 186.369 44.0065 186.374 44.6779V158.483C186.369 159.155 186.098 159.797 185.62 160.268C185.143 160.74 184.497 161.003 183.826 160.999Z" fill="white"/>
<path d="M186.374 78.9857H130.325V79.7701H186.374V78.9857Z" fill="#CDCDCD"/>
<path d="M186.57 123.74H130.521V124.525H186.57V123.74Z" fill="#CDCDCD"/>
<path d="M148.747 42.1618H147.963V161.392H148.747V42.1618Z" fill="#CDCDCD"/>
<path d="M168.344 42.1618H167.56V161.392H168.344V42.1618Z" fill="#CDCDCD"/>
</g>
<defs>
<clipPath id="clip0_29_9">
<rect width="341" height="204" fill="white"/>
</clipPath>
</defs>
</svg>
